# xmcd CD database file
#
# Track frame offsets:
#	182
#	13932
#	26620
#	39457
#	53482
#	66257
#	78945
#	89420
#	100395
#	113195
#	123182
#	132982
#	145607
#	153520
#	184070
#	207370
#
# Disc length: 2925 seconds
#
# Revision: 1
# Processed by: cddbd v1.4PL0 Copyright (c) Steve Scherf et al.
# Submitted via: Feurio! 1.63 - http://www.feurio.com
#
DISCID=d60b6b10
DTITLE=James Brown - Early Studio Hits and Bonus Tracks: Greatest Hits Live
DYEAR=1960
DGENRE=Funk
TTITLE0=The Bells
TTITLE1=I Don't Mind
TTITLE2=Just You And Me, Darling
TTITLE3=Lost Someone
TTITLE4=I Love You, Yes I Do
TTITLE5=Come Over Here
TTITLE6=Dancin' Little Thing
TTITLE7=And I Do Just What I Want
TTITLE8=So Long
TTITLE9=Tell, Mewhat You're Gonna Do
TTITLE10=Love Don't Lovw Nobody
TTITLE11=You Don't Have Too Go
TTITLE12=Papa's Got A Brand New Bag
TTITLE13=Sex Machine
TTITLE14=Bodyheat
TTITLE15=Gonna Have A Funky Good
EXTD=
EXTT0=
EXTT1=
EXTT2=
EXTT3=
EXTT4=
EXTT5=
EXTT6=
EXTT7=
EXTT8=
EXTT9=
EXTT10=
EXTT11=
EXTT12=
EXTT13=
EXTT14=
EXTT15=
PLAYORDER=
